# xmcd
#
# Track frame offsets: 
#        182
#        18905
#        35085
#        56452
#        82277
#        104630
#        118257
#
# Disc length: 1822 seconds
#
# Revision: 0
# Processed by: cddbd v1.4PL0 Copyright (c) Steve Scherf et al.
# Submitted via: ExactAudioCopy v0.95a3
#
DISCID=60071c07
DTITLE=Various Artist - Okeh Sampler, Blues Label Since 1916
DYEAR=1996
DGENRE=
TTITLE0=Keb' Mo' - That's Not Love
TTITLE1=G. Love And Special Sauce - The Things That I Used To Do
TTITLE2=Alvin Youngblood Hart - Things 'bout Comin' My Way
TTITLE3=Popa Chubby - Same Old Blues
TTITLE4=Anders Osborne - Pleasin' You
TTITLE5=Keb' Mo' - Every Morning
TTITLE6=G. Love And Special Sauce - Sweet Sugar Mama
EXTD=
EXTT0=
EXTT1=
EXTT2=
EXTT3=
EXTT4=
EXTT5=
EXTT6=
PLAYORDER=
